<svg xmlns="http://www.w3.org/2000/svg" width="1920" height="1280"><path d="M1044,755L853,1021L1277,1020Z" fill="#1d2d3e" stroke="#1d2d3e" stroke-width="1.51"/><path d="M853,1021L864,1275L1277,1020Z" fill="#1c2b3b" stroke="#1c2b3b" stroke-width="1.51"/><path d="M864,1275L1205,1348L1277,1020Z" fill="#192838" stroke="#192838" stroke-width="1.51"/><path d="M853,1021L610,1052L864,1275Z" fill="#1d2d3e" stroke="#1d2d3e" stroke-width="1.51"/><path d="M673,626L610,1052L853,1021Z" fill="#213243" stroke="#213243" stroke-width="1.51"/><path d="M1277,1020L1418,646L1044,755Z" fill="#1e2d3e" stroke="#1e2d3e" stroke-width="1.51"/><path d="M1727,881L1418,646L1277,1020Z" fill="#1b2a3a" stroke="#1b2a3a" stroke-width="1.51"/><path d="M1044,755L673,626L853,1021Z" fill="#213243" stroke="#213243" stroke-width="1.51"/><path d="M969,394L673,626L1044,755Z" fill="#243546" stroke="#243546" stroke-width="1.51"/><path d="M1205,1348L1536,1261L1277,1020Z" fill="#172635" stroke="#172635" stroke-width="1.51"/><path d="M864,1275L943,1594L1205,1348Z" fill="#192838" stroke="#192838" stroke-width="1.51"/><path d="M610,1052L707,1401L864,1275Z" fill="#1c2c3c" stroke="#1c2c3c" stroke-width="1.51"/><path d="M1418,646L969,394L1044,755Z" fill="#213243" stroke="#213243" stroke-width="1.51"/><path d="M707,1401L943,1594L864,1275Z" fill="#1b2a3a" stroke="#1b2a3a" stroke-width="1.51"/><path d="M1205,1348L1676,1568L1536,1261Z" fill="#152332" stroke="#152332" stroke-width="1.51"/><path d="M1536,1261L1727,881L1277,1020Z" fill="#172636" stroke="#172636" stroke-width="1.51"/><path d="M1418,646L1314,220L969,394Z" fill="#233445" stroke="#233445" stroke-width="1.51"/><path d="M1727,881L1706,746L1418,646Z" fill="#1a2a3a" stroke="#1a2a3a" stroke-width="1.51"/><path d="M1585,366L1314,220L1418,646Z" fill="#213243" stroke="#213243" stroke-width="1.51"/><path d="M1706,746L1585,366L1418,646Z" fill="#1d2d3e" stroke="#1d2d3e" stroke-width="1.51"/><path d="M943,1594L1351,1765L1205,1348Z" fill="#182736" stroke="#182736" stroke-width="1.51"/><path d="M1536,1261L1911,1064L1727,881Z" fill="#162433" stroke="#162433" stroke-width="1.51"/><path d="M1727,881L1884,664L1706,746Z" fill="#192838" stroke="#192838" stroke-width="1.51"/><path d="M1706,746L1884,664L1585,366Z" fill="#1c2c3c" stroke="#1c2c3c" stroke-width="1.51"/><path d="M1973,1227L1911,1064L1536,1261Z" fill="#142130" stroke="#142130" stroke-width="1.51"/><path d="M1351,1765L1676,1568L1205,1348Z" fill="#152433" stroke="#152433" stroke-width="1.51"/><path d="M969,394L629,229L673,626Z" fill="#27394b" stroke="#27394b" stroke-width="1.51"/><path d="M177,1036L221,1216L610,1052Z" fill="#223344" stroke="#223344" stroke-width="1.51"/><path d="M870,-151L629,229L969,394Z" fill="#2a3d50" stroke="#2a3d50" stroke-width="1.51"/><path d="M1911,1064L1884,664L1727,881Z" fill="#172635" stroke="#172635" stroke-width="1.51"/><path d="M610,1052L221,1216L707,1401Z" fill="#1f2f3f" stroke="#1f2f3f" stroke-width="1.51"/><path d="M707,1401L676,1779L943,1594Z" fill="#1b2b3b" stroke="#1b2b3b" stroke-width="1.51"/><path d="M177,1036L610,1052L186,643Z" fill="#253648" stroke="#253648" stroke-width="1.51"/><path d="M186,643L610,1052L673,626Z" fill="#253648" stroke="#253648" stroke-width="1.51"/><path d="M943,1594L858,2074L1351,1765Z" fill="#192837" stroke="#192837" stroke-width="1.51"/><path d="M237,1793L676,1779L707,1401Z" fill="#1d2e3e" stroke="#1d2e3e" stroke-width="1.51"/><path d="M629,229L186,643L673,626Z" fill="#283b4d" stroke="#283b4d" stroke-width="1.51"/><path d="M1911,1064L2268,669L1884,664Z" fill="#172636" stroke="#172636" stroke-width="1.51"/><path d="M1676,1568L1973,1227L1536,1261Z" fill="#12212f" stroke="#12212f" stroke-width="1.51"/><path d="M1884,664L1893,392L1585,366Z" fill="#1d2d3d" stroke="#1d2d3d" stroke-width="1.51"/><path d="M1617,32L1396,-39L1314,220Z" fill="#26384a" stroke="#26384a" stroke-width="1.51"/><path d="M2268,669L1893,392L1884,664Z" fill="#1a2a3a" stroke="#1a2a3a" stroke-width="1.51"/><path d="M1676,1568L1929,1567L1973,1227Z" fill="#121f2d" stroke="#121f2d" stroke-width="1.51"/><path d="M1672,1935L1929,1567L1676,1568Z" fill="#12202f" stroke="#12202f" stroke-width="1.51"/><path d="M1314,220L870,-151L969,394Z" fill="#283a4d" stroke="#283a4d" stroke-width="1.51"/><path d="M1617,32L1314,220L1585,366Z" fill="#233546" stroke="#233546" stroke-width="1.51"/><path d="M1893,392L1617,32L1585,366Z" fill="#213242" stroke="#213242" stroke-width="1.51"/><path d="M186,643L11,694L177,1036Z" fill="#283a4d" stroke="#283a4d" stroke-width="1.51"/><path d="M177,1036L-97,1297L221,1216Z" fill="#233445" stroke="#233445" stroke-width="1.51"/><path d="M171,226L11,694L186,643Z" fill="#2c3e52" stroke="#2c3e52" stroke-width="1.51"/><path d="M676,1779L858,2074L943,1594Z" fill="#1b2a3a" stroke="#1b2a3a" stroke-width="1.51"/><path d="M1351,1765L1672,1935L1676,1568Z" fill="#142231" stroke="#142231" stroke-width="1.51"/><path d="M568,2028L858,2074L676,1779Z" fill="#1c2c3c" stroke="#1c2c3c" stroke-width="1.51"/><path d="M1358,2127L1672,1935L1351,1765Z" fill="#152432" stroke="#152432" stroke-width="1.51"/><path d="M629,229L171,226L186,643Z" fill="#2c3e52" stroke="#2c3e52" stroke-width="1.51"/><path d="M1396,-39L870,-151L1314,220Z" fill="#293b4e" stroke="#293b4e" stroke-width="1.51"/><path d="M244,-51L171,226L629,229Z" fill="#2f4257" stroke="#2f4257" stroke-width="1.51"/><path d="M-97,1297L237,1793L221,1216Z" fill="#223243" stroke="#223243" stroke-width="1.51"/><path d="M221,1216L237,1793L707,1401Z" fill="#1f2f40" stroke="#1f2f40" stroke-width="1.51"/><path d="M237,1793L568,2028L676,1779Z" fill="#1e2e3f" stroke="#1e2e3f" stroke-width="1.51"/><path d="M11,694L-108,935L177,1036Z" fill="#28394c" stroke="#28394c" stroke-width="1.51"/><path d="M-380,919L-108,935L-364,712Z" fill="#283a4d" stroke="#283a4d" stroke-width="1.51"/><path d="M858,2074L1358,2127L1351,1765Z" fill="#172636" stroke="#172636" stroke-width="1.51"/><path d="M-108,935L-97,1297L177,1036Z" fill="#253748" stroke="#253748" stroke-width="1.51"/><path d="M870,-151L621,-153L629,229Z" fill="#2e4154" stroke="#2e4154" stroke-width="1.51"/><path d="M2410,874L2268,669L1911,1064Z" fill="#162534" stroke="#162534" stroke-width="1.51"/><path d="M1893,392L1955,23L1617,32Z" fill="#223243" stroke="#223243" stroke-width="1.51"/><path d="M2410,874L1911,1064L1973,1227Z" fill="#142231" stroke="#142231" stroke-width="1.51"/><path d="M2374,341L1955,23L1893,392Z" fill="#1f2f40" stroke="#1f2f40" stroke-width="1.51"/><path d="M1346,-497L1054,-342L1396,-39Z" fill="#293b4d" stroke="#293b4d" stroke-width="1.51"/><path d="M1396,-39L1054,-342L870,-151Z" fill="#2a3c4f" stroke="#2a3c4f" stroke-width="1.51"/><path d="M621,-153L244,-51L629,229Z" fill="#304357" stroke="#304357" stroke-width="1.51"/><path d="M171,226L-164,257L11,694Z" fill="#2f4256" stroke="#2f4256" stroke-width="1.51"/><path d="M1346,-497L1396,-39L1735,-458Z" fill="#27384a" stroke="#27384a" stroke-width="1.51"/><path d="M870,-151L696,-439L621,-153Z" fill="#2e4054" stroke="#2e4054" stroke-width="1.51"/><path d="M621,-153L330,-446L244,-51Z" fill="#314458" stroke="#314458" stroke-width="1.51"/><path d="M2268,669L2374,341L1893,392Z" fill="#1c2c3c" stroke="#1c2c3c" stroke-width="1.51"/><path d="M2387,1390L2410,874L1973,1227Z" fill="#12212f" stroke="#12212f" stroke-width="1.51"/><path d="M1929,1567L2387,1390L1973,1227Z" fill="#111f2d" stroke="#111f2d" stroke-width="1.51"/><path d="M2313,1644L2387,1390L1929,1567Z" fill="#111f2d" stroke="#111f2d" stroke-width="1.51"/><path d="M-97,1297L-96,1763L237,1793Z" fill="#223345" stroke="#223345" stroke-width="1.51"/><path d="M237,1793L244,2128L568,2028Z" fill="#1f3040" stroke="#1f3040" stroke-width="1.51"/><path d="M-438,1618L-96,1763L-97,1297Z" fill="#223345" stroke="#223345" stroke-width="1.51"/><path d="M1950,2114L2313,1644L1929,1567Z" fill="#111f2d" stroke="#111f2d" stroke-width="1.51"/><path d="M1950,2114L1929,1567L1672,1935Z" fill="#111f2e" stroke="#111f2e" stroke-width="1.51"/><path d="M858,2074L244,2128L1358,2127Z" fill="#1b2a3a" stroke="#1b2a3a" stroke-width="1.51"/><path d="M568,2028L244,2128L858,2074Z" fill="#1d2d3e" stroke="#1d2d3e" stroke-width="1.51"/><path d="M-139,2068L244,2128L237,1793Z" fill="#223243" stroke="#223243" stroke-width="1.51"/><path d="M-108,935L-380,919L-97,1297Z" fill="#263749" stroke="#263749" stroke-width="1.51"/><path d="M-125,-130L-164,257L171,226Z" fill="#33475b" stroke="#33475b" stroke-width="1.51"/><path d="M1358,2127L1950,2114L1672,1935Z" fill="#132130" stroke="#132130" stroke-width="1.51"/><path d="M-364,712L-108,935L11,694Z" fill="#2a3c4e" stroke="#2a3c4e" stroke-width="1.51"/><path d="M-164,257L-364,712L11,694Z" fill="#2d3f53" stroke="#2d3f53" stroke-width="1.51"/><path d="M2410,874L2374,341L2268,669Z" fill="#1a2939" stroke="#1a2939" stroke-width="1.51"/><path d="M-363,38L-382,338L-164,257Z" fill="#32455a" stroke="#32455a" stroke-width="1.51"/><path d="M1054,-342L696,-439L870,-151Z" fill="#2c3f52" stroke="#2c3f52" stroke-width="1.51"/><path d="M1054,-342L1346,-497L696,-439Z" fill="#2b3d50" stroke="#2b3d50" stroke-width="1.51"/><path d="M1735,-458L1396,-39L1617,32Z" fill="#263749" stroke="#263749" stroke-width="1.51"/><path d="M1735,-458L1617,32L1955,23Z" fill="#243547" stroke="#243547" stroke-width="1.51"/><path d="M1926,-434L1735,-458L1955,23Z" fill="#233445" stroke="#233445" stroke-width="1.51"/><path d="M-164,257L-382,338L-364,712Z" fill="#2e4155" stroke="#2e4155" stroke-width="1.51"/><path d="M-364,712L-382,338L-380,919Z" fill="#2b3e51" stroke="#2b3e51" stroke-width="1.51"/><path d="M-125,-130L171,226L244,-51Z" fill="#34485c" stroke="#34485c" stroke-width="1.51"/><path d="M696,-439L330,-446L621,-153Z" fill="#2f4256" stroke="#2f4256" stroke-width="1.51"/><path d="M1346,-497L330,-446L696,-439Z" fill="#2d4053" stroke="#2d4053" stroke-width="1.51"/><path d="M-96,1763L-139,2068L237,1793Z" fill="#223345" stroke="#223345" stroke-width="1.51"/><path d="M-380,919L-482,1391L-97,1297Z" fill="#243446" stroke="#243446" stroke-width="1.51"/><path d="M-382,338L-482,1391L-380,919Z" fill="#283a4d" stroke="#283a4d" stroke-width="1.51"/><path d="M-44,-478L-125,-130L244,-51Z" fill="#35485d" stroke="#35485d" stroke-width="1.51"/><path d="M-345,2075L-139,2068L-96,1763Z" fill="#223345" stroke="#223345" stroke-width="1.51"/><path d="M-482,1391L-438,1618L-97,1297Z" fill="#223345" stroke="#223345" stroke-width="1.51"/><path d="M2374,341L2394,7L1955,23Z" fill="#213142" stroke="#213142" stroke-width="1.51"/><path d="M2410,874L2394,7L2374,341Z" fill="#1d2d3d" stroke="#1d2d3d" stroke-width="1.51"/><path d="M2362,-457L1926,-434L1955,23Z" fill="#223345" stroke="#223345" stroke-width="1.51"/><path d="M-382,338L-436,-404L-482,1391Z" fill="#2e4155" stroke="#2e4155" stroke-width="1.51"/><path d="M-125,-130L-363,38L-164,257Z" fill="#34485d" stroke="#34485d" stroke-width="1.51"/><path d="M-438,1618L-345,2075L-96,1763Z" fill="#223345" stroke="#223345" stroke-width="1.51"/><path d="M-139,2068L-345,2075L244,2128Z" fill="#223345" stroke="#223345" stroke-width="1.51"/><path d="M1950,2114L2429,2132L2313,1644Z" fill="#111f2d" stroke="#111f2d" stroke-width="1.51"/><path d="M2313,1644L2429,2132L2387,1390Z" fill="#111f2d" stroke="#111f2d" stroke-width="1.51"/><path d="M2387,1390L2429,2132L2410,874Z" fill="#111f2d" stroke="#111f2d" stroke-width="1.51"/><path d="M1358,2127L2429,2132L1950,2114Z" fill="#111f2d" stroke="#111f2d" stroke-width="1.51"/><path d="M244,2128L2429,2132L1358,2127Z" fill="#162534" stroke="#162534" stroke-width="1.51"/><path d="M-125,-130L-436,-404L-363,38Z" fill="#35495e" stroke="#35495e" stroke-width="1.51"/><path d="M330,-446L-44,-478L244,-51Z" fill="#33475b" stroke="#33475b" stroke-width="1.51"/><path d="M1346,-497L-44,-478L330,-446Z" fill="#2f4357" stroke="#2f4357" stroke-width="1.51"/><path d="M2394,7L2362,-457L1955,23Z" fill="#223345" stroke="#223345" stroke-width="1.51"/><path d="M1926,-434L2362,-457L1735,-458Z" fill="#223345" stroke="#223345" stroke-width="1.51"/><path d="M1735,-458L2362,-457L1346,-497Z" fill="#243446" stroke="#243446" stroke-width="1.51"/><path d="M-44,-478L-436,-404L-125,-130Z" fill="#35495e" stroke="#35495e" stroke-width="1.51"/><path d="M-363,38L-436,-404L-382,338Z" fill="#35495e" stroke="#35495e" stroke-width="1.51"/></svg>